<svg width="239" height="78" viewBox="0 0 239 78" fill="none" xmlns="http://www.w3.org/2000/svg">
<path d="M229.493 78H9.1228C4.27685 78 0.307983 73.6101 0.307983 68.25V9.75C0.307983 4.38994 4.27685 -1.90735e-06 9.1228 -1.90735e-06H229.493C234.339 -1.90735e-06 238.308 4.38994 238.308 9.75V68.25C238.308 73.6101 234.339 78 229.493 78Z" fill="#131312"/>
<path d="M58.721 38.6735C58.7408 37.1402 59.1481 35.6368 59.9049 34.3033C60.6618 32.9697 61.7438 31.8492 63.05 31.0462C62.2202 29.861 61.1254 28.8857 59.8527 28.1976C58.58 27.5096 57.1644 27.1277 55.7183 27.0825C52.6335 26.7587 49.643 28.9284 48.0711 28.9284C46.4687 28.9284 44.0485 27.1147 41.4423 27.1683C39.7565 27.2227 38.1136 27.7129 36.6736 28.5911C35.2336 29.4693 34.0457 30.7055 33.2255 32.1794C29.6728 38.3304 32.3228 47.3703 35.7261 52.3424C37.4288 54.777 39.4187 57.4966 42.0226 57.4002C44.5706 57.2945 45.5223 55.7754 48.5979 55.7754C51.6451 55.7754 52.5379 57.4002 55.1946 57.3388C57.9287 57.2945 59.6514 54.8934 61.2943 52.4356C62.5177 50.7009 63.4591 48.7835 64.0837 46.7547C62.4952 46.0829 61.1397 44.9583 60.186 43.5212C59.2324 42.0842 58.7229 40.3982 58.721 38.6735Z" fill="#FFFBE9"/>
<path d="M53.7039 23.8148C55.1947 22.0252 55.9291 19.725 55.7513 17.4026C53.4737 17.6418 51.3699 18.7303 49.8589 20.4513C49.1202 21.292 48.5544 22.2701 48.1939 23.3296C47.8334 24.3891 47.6853 25.5093 47.758 26.6261C48.8971 26.6379 50.0242 26.391 51.0541 25.904C52.084 25.417 52.99 24.7027 53.7039 23.8148Z" fill="#FFFBE9"/>
<path d="M89.1644 49.8472H80.8512L78.8548 55.7421H75.3337L83.2078 33.9326H86.8661L94.7402 55.7421H91.159L89.1644 49.8472ZM81.7122 47.1271H88.3018L85.0533 37.5601H84.9624L81.7122 47.1271Z" fill="#FFFBE9"/>
<path d="M111.746 47.7905C111.746 52.7318 109.102 55.9065 105.111 55.9065C104.1 55.9593 103.094 55.7265 102.209 55.2345C101.325 54.7425 100.596 54.0112 100.108 53.1245H100.032V61.0003H96.7682V39.8392H99.9275V42.4839H99.9876C100.499 41.6015 101.239 40.874 102.131 40.379C103.022 39.884 104.031 39.64 105.051 39.6729C109.086 39.6729 111.746 42.863 111.746 47.7905ZM108.392 47.7905C108.392 44.5713 106.728 42.4548 104.19 42.4548C101.696 42.4548 100.018 44.6158 100.018 47.7905C100.018 50.9944 101.696 53.14 104.19 53.14C106.728 53.14 108.392 51.039 108.392 47.7905Z" fill="#FFFBE9"/>
<path d="M129.247 47.7905C129.247 52.7318 126.603 55.9064 122.612 55.9064C121.601 55.9593 120.595 55.7264 119.71 55.2344C118.826 54.7424 118.097 54.0112 117.609 53.1245H117.533V61.0003H114.269V39.8392H117.428V42.4839H117.488C117.999 41.6015 118.74 40.874 119.632 40.379C120.523 39.884 121.532 39.64 122.552 39.6729C126.587 39.6729 129.247 42.863 129.247 47.7905ZM125.893 47.7905C125.893 44.5712 124.229 42.4548 121.691 42.4548C119.197 42.4548 117.519 44.6158 117.519 47.7905C117.519 50.9944 119.197 53.14 121.691 53.14C124.229 53.14 125.893 51.0389 125.893 47.7905H125.893Z" fill="#FFFBE9"/>
<path d="M140.813 49.6648C141.055 51.8276 143.156 53.2477 146.027 53.2477C148.778 53.2477 150.758 51.8275 150.758 49.8774C150.758 48.1846 149.564 47.171 146.737 46.4764L143.911 45.7955C139.906 44.8281 138.047 42.9552 138.047 39.916C138.047 36.153 141.326 33.5684 145.983 33.5684C150.591 33.5684 153.751 36.153 153.857 39.916H150.562C150.365 37.7395 148.566 36.4258 145.936 36.4258C143.307 36.4258 141.508 37.755 141.508 39.6896C141.508 41.2315 142.657 42.1388 145.468 42.8334L147.871 43.4234C152.346 44.4816 154.205 46.2791 154.205 49.4692C154.205 53.5494 150.955 56.105 145.786 56.105C140.949 56.105 137.683 53.6095 137.472 49.6647L140.813 49.6648Z" fill="#FFFBE9"/>
<path d="M161.249 36.0781V39.8411H164.273V42.4258H161.249V51.1918C161.249 52.5536 161.855 53.1882 163.184 53.1882C163.543 53.1819 163.901 53.1567 164.257 53.1126V55.6819C163.66 55.7935 163.052 55.8441 162.445 55.8328C159.225 55.8328 157.97 54.6236 157.97 51.5399V42.4258H155.658V39.8411H157.97V36.0781H161.249Z" fill="#FFFBE9"/>
<path d="M166.025 47.7933C166.025 42.7903 168.972 39.6465 173.566 39.6465C178.177 39.6465 181.11 42.7902 181.11 47.7933C181.11 52.81 178.192 55.9401 173.566 55.9401C168.942 55.9401 166.025 52.81 166.025 47.7933ZM177.784 47.7933C177.784 44.3613 176.211 42.3358 173.566 42.3358C170.922 42.3358 169.351 44.3768 169.351 47.7933C169.351 51.239 170.922 53.2491 173.566 53.2491C176.211 53.2491 177.784 51.239 177.784 47.7933Z" fill="#FFFBE9"/>
<path d="M183.8 39.8391H186.913V42.5455H186.988C187.199 41.7002 187.694 40.9532 188.391 40.4301C189.087 39.9069 189.943 39.6394 190.813 39.6727C191.189 39.6714 191.564 39.7122 191.931 39.7945V42.8474C191.457 42.7023 190.961 42.6357 190.465 42.6501C189.991 42.6309 189.518 42.7145 189.079 42.8952C188.64 43.0759 188.246 43.3494 187.923 43.697C187.6 44.0445 187.356 44.4579 187.207 44.9087C187.059 45.3594 187.01 45.837 187.064 46.3085V55.7399H183.8L183.8 39.8391Z" fill="#FFFBE9"/>
<path d="M206.979 51.0726C206.54 53.9591 203.729 55.9401 200.133 55.9401C195.507 55.9401 192.636 52.8409 192.636 47.8688C192.636 42.8812 195.522 39.6465 199.995 39.6465C204.395 39.6465 207.161 42.6685 207.161 47.4897V48.608H195.931V48.8052C195.879 49.3904 195.952 49.9799 196.146 50.5346C196.339 51.0893 196.648 51.5965 197.053 52.0225C197.458 52.4485 197.948 52.7835 198.492 53.0053C199.036 53.2272 199.621 53.3307 200.208 53.3091C200.979 53.3814 201.753 53.2027 202.415 52.7998C203.077 52.3968 203.591 51.7911 203.88 51.0726L206.979 51.0726ZM195.946 46.3269H203.896C203.925 45.8007 203.845 45.2741 203.661 44.7803C203.478 44.2864 203.194 43.8358 202.827 43.4569C202.461 43.0779 202.021 42.7788 201.533 42.5782C201.046 42.3776 200.522 42.2799 199.995 42.2912C199.464 42.288 198.937 42.3901 198.445 42.5917C197.953 42.7932 197.506 43.0901 197.13 43.4653C196.753 43.8405 196.455 44.2866 196.252 44.7777C196.049 45.2688 195.945 45.7954 195.946 46.3269V46.3269Z" fill="#FFFBE9"/>
<path d="M79.119 17.9183C79.8033 17.8692 80.4899 17.9725 81.1294 18.2209C81.7689 18.4693 82.3453 18.8566 82.817 19.3547C83.2887 19.8528 83.6439 20.4494 83.8572 21.1015C84.0704 21.7535 84.1362 22.4448 84.05 23.1254C84.05 26.4733 82.2405 28.3977 79.119 28.3977H75.3337V17.9183H79.119ZM76.9614 26.9157H78.9372C79.4261 26.9449 79.9155 26.8647 80.3695 26.681C80.8236 26.4973 81.231 26.2146 81.562 25.8536C81.8931 25.4926 82.1394 25.0622 82.2832 24.594C82.427 24.1257 82.4645 23.6313 82.3931 23.1467C82.4594 22.664 82.418 22.1727 82.272 21.7078C82.126 21.243 81.8791 20.8162 81.5488 20.4581C81.2185 20.0999 80.813 19.8193 80.3615 19.6362C79.91 19.4531 79.4236 19.3722 78.9372 19.3992H76.9614V26.9157Z" fill="#FFFBE9"/>
<path d="M85.8886 24.4431C85.8389 23.9233 85.8984 23.399 86.0632 22.9036C86.228 22.4082 86.4945 21.9527 86.8457 21.5664C87.1968 21.18 87.6249 20.8713 88.1023 20.6601C88.5797 20.4488 89.0961 20.3397 89.6182 20.3397C90.1402 20.3397 90.6566 20.4488 91.134 20.6601C91.6115 20.8713 92.0395 21.18 92.3906 21.5664C92.7418 21.9527 93.0083 22.4082 93.1731 22.9036C93.3379 23.399 93.3974 23.9233 93.3477 24.4431C93.3983 24.9633 93.3396 25.4884 93.1752 25.9846C93.0108 26.4808 92.7445 26.9371 92.3932 27.3242C92.042 27.7113 91.6136 28.0207 91.1357 28.2324C90.6578 28.444 90.1409 28.5534 89.6182 28.5534C89.0954 28.5534 88.5785 28.444 88.1006 28.2324C87.6227 28.0207 87.1943 27.7113 86.8431 27.3242C86.4918 26.9371 86.2255 26.4808 86.0611 25.9846C85.8967 25.4884 85.838 24.9633 85.8886 24.4431ZM91.7423 24.4431C91.7423 22.7288 90.9722 21.7263 89.6207 21.7263C88.2641 21.7263 87.5009 22.7288 87.5009 24.4431C87.5009 26.1711 88.2641 27.1658 89.6207 27.1658C90.9723 27.1658 91.7423 26.1642 91.7423 24.4431H91.7423Z" fill="#FFFBE9"/>
<path d="M103.263 28.3982H101.644L100.009 22.5736H99.8857L98.258 28.3982H96.6544L94.4745 20.4897H96.0575L97.4742 26.5243H97.5908L99.2168 20.4897H100.714L102.34 26.5243H102.463L103.873 20.4897H105.434L103.263 28.3982Z" fill="#FFFBE9"/>
<path d="M107.267 20.4894H108.77V21.7457H108.886C109.084 21.2945 109.418 20.9163 109.841 20.6637C110.264 20.4111 110.755 20.2968 111.246 20.3368C111.631 20.3078 112.017 20.3659 112.377 20.5065C112.736 20.6472 113.059 20.8669 113.322 21.1494C113.585 21.4319 113.781 21.7699 113.895 22.1384C114.01 22.5069 114.04 22.8965 113.983 23.2782V28.3977H112.423V23.6701C112.423 22.3992 111.87 21.7672 110.716 21.7672C110.455 21.755 110.194 21.7995 109.952 21.8975C109.709 21.9956 109.491 22.1449 109.311 22.3353C109.132 22.5256 108.996 22.7525 108.913 23.0004C108.829 23.2482 108.8 23.5112 108.828 23.7713V28.3978H107.267L107.267 20.4894Z" fill="#FFFBE9"/>
<path d="M116.471 17.4026H118.032V28.3982H116.471V17.4026Z" fill="#FFFBE9"/>
<path d="M120.201 24.4389C120.151 23.9192 120.21 23.3948 120.375 22.8994C120.54 22.404 120.807 21.9485 121.158 21.5621C121.509 21.1757 121.937 20.8671 122.415 20.6558C122.892 20.4446 123.408 20.3354 123.931 20.3354C124.453 20.3354 124.969 20.4446 125.447 20.6558C125.924 20.8671 126.352 21.1757 126.703 21.5621C127.054 21.9485 127.321 22.404 127.486 22.8994C127.651 23.3948 127.71 23.9192 127.661 24.4389C127.711 24.9592 127.652 25.4843 127.488 25.9805C127.323 26.4767 127.057 26.933 126.706 27.3201C126.354 27.7072 125.926 28.0165 125.448 28.2282C124.97 28.4399 124.453 28.5492 123.931 28.5492C123.408 28.5492 122.891 28.4399 122.413 28.2282C121.935 28.0165 121.507 27.7072 121.155 27.3201C120.804 26.933 120.538 26.4767 120.373 25.9805C120.209 25.4843 120.15 24.9592 120.201 24.4389ZM126.054 24.4389C126.054 22.7247 125.284 21.7222 123.933 21.7222C122.576 21.7222 121.813 22.7247 121.813 24.439C121.813 26.1669 122.576 27.1617 123.933 27.1617C125.284 27.1617 126.054 26.1601 126.054 24.4389H126.054Z" fill="#FFFBE9"/>
<path d="M129.304 26.1643C129.304 24.7407 130.364 23.92 132.246 23.8034L134.388 23.6799V22.9973C134.388 22.162 133.836 21.6904 132.769 21.6904C131.897 21.6904 131.294 22.0102 131.121 22.5694H129.61C129.769 21.211 131.047 20.3397 132.841 20.3397C134.823 20.3397 135.942 21.3268 135.942 22.9973V28.4008H134.439V27.2894H134.316C134.065 27.688 133.713 28.013 133.296 28.2312C132.879 28.4493 132.411 28.5528 131.94 28.5311C131.608 28.5656 131.273 28.5302 130.955 28.4271C130.638 28.324 130.346 28.1555 130.097 27.9325C129.849 27.7095 129.65 27.437 129.513 27.1324C129.377 26.8278 129.306 26.498 129.304 26.1643ZM134.388 25.4885V24.8273L132.457 24.9508C131.367 25.0237 130.874 25.3942 130.874 26.0914C130.874 26.8031 131.491 27.2173 132.34 27.2173C132.589 27.2425 132.84 27.2174 133.079 27.1435C133.318 27.0695 133.539 26.9483 133.73 26.787C133.921 26.6257 134.078 26.4276 134.191 26.2046C134.304 25.9815 134.371 25.738 134.388 25.4885Z" fill="#FFFBE9"/>
<path d="M137.993 24.4406C137.993 21.9417 139.278 20.3586 141.276 20.3586C141.77 20.3358 142.261 20.4542 142.69 20.6999C143.12 20.9456 143.47 21.3085 143.701 21.7461H143.818V17.4026H145.379V28.3982H143.883V27.1487H143.76C143.511 27.5834 143.148 27.9417 142.71 28.185C142.273 28.4282 141.777 28.547 141.276 28.5285C139.264 28.5286 137.993 26.9455 137.993 24.4406ZM139.606 24.4406C139.606 26.118 140.396 27.1273 141.719 27.1273C143.034 27.1273 143.847 26.1034 143.847 24.4475C143.847 22.7992 143.026 21.7607 141.719 21.7607C140.405 21.7607 139.606 22.7769 139.606 24.4406H139.606Z" fill="#FFFBE9"/>
<path d="M151.835 24.4431C151.785 23.9233 151.845 23.399 152.009 22.9036C152.174 22.4082 152.441 21.9527 152.792 21.5664C153.143 21.18 153.571 20.8713 154.049 20.6601C154.526 20.4488 155.042 20.3397 155.564 20.3397C156.087 20.3397 156.603 20.4488 157.08 20.6601C157.558 20.8713 157.986 21.18 158.337 21.5664C158.688 21.9527 158.955 22.4082 159.119 22.9036C159.284 23.399 159.344 23.9233 159.294 24.4431C159.345 24.9633 159.286 25.4884 159.122 25.9846C158.957 26.4808 158.691 26.9371 158.34 27.3242C157.988 27.7113 157.56 28.0207 157.082 28.2324C156.604 28.444 156.087 28.5534 155.564 28.5534C155.042 28.5534 154.525 28.444 154.047 28.2324C153.569 28.0207 153.141 27.7113 152.789 27.3242C152.438 26.9371 152.172 26.4808 152.007 25.9846C151.843 25.4884 151.784 24.9633 151.835 24.4431ZM157.689 24.4431C157.689 22.7288 156.919 21.7263 155.567 21.7263C154.21 21.7263 153.447 22.7288 153.447 24.4431C153.447 26.1711 154.21 27.1658 155.567 27.1658C156.919 27.1658 157.689 26.1642 157.689 24.4431Z" fill="#FFFBE9"/>
<path d="M161.39 20.4894H162.892V21.7457H163.009C163.207 21.2945 163.54 20.9163 163.963 20.6637C164.387 20.4111 164.878 20.2968 165.369 20.3368C165.754 20.3078 166.14 20.3659 166.499 20.5065C166.859 20.6472 167.182 20.8669 167.445 21.1494C167.708 21.4319 167.904 21.7699 168.018 22.1384C168.133 22.5069 168.163 22.8965 168.106 23.2782V28.3977H166.545V23.6701C166.545 22.3992 165.993 21.7672 164.839 21.7672C164.578 21.755 164.317 21.7995 164.074 21.8975C163.832 21.9956 163.614 22.1449 163.434 22.3353C163.255 22.5256 163.119 22.7525 163.035 23.0004C162.952 23.2482 162.923 23.5112 162.951 23.7713V28.3978H161.39V20.4894Z" fill="#FFFBE9"/>
<path d="M176.925 18.5217V20.5267H178.639V21.8413H176.925V25.9079C176.925 26.7363 177.267 27.099 178.044 27.099C178.243 27.0984 178.441 27.0864 178.639 27.063V28.3631C178.358 28.4132 178.074 28.4399 177.79 28.4428C176.054 28.4428 175.363 27.8322 175.363 26.3075V21.8413H174.107V20.5266H175.363V18.5217H176.925Z" fill="#FFFBE9"/>
<path d="M180.77 17.4026H182.317V21.7607H182.44C182.648 21.3053 182.99 20.9249 183.422 20.6714C183.853 20.4178 184.353 20.3035 184.851 20.344C185.234 20.3232 185.617 20.3871 185.972 20.5312C186.327 20.6753 186.647 20.896 186.907 21.1776C187.167 21.4592 187.362 21.7947 187.477 22.1603C187.593 22.5258 187.626 22.9124 187.575 23.2923V28.3982H186.013V23.6773C186.013 22.4142 185.424 21.7744 184.322 21.7744C184.053 21.7524 183.784 21.7893 183.531 21.8825C183.279 21.9756 183.049 22.1229 182.86 22.3138C182.67 22.5048 182.524 22.7349 182.433 22.9881C182.342 23.2412 182.307 23.5113 182.33 23.7794V28.3982H180.77L180.77 17.4026Z" fill="#FFFBE9"/>
<path d="M196.677 26.2613C196.464 26.9841 196.005 27.6093 195.379 28.0276C194.752 28.4458 193.999 28.6305 193.25 28.5493C192.729 28.563 192.211 28.4632 191.732 28.2568C191.254 28.0504 190.826 27.7423 190.478 27.3539C190.131 26.9656 189.872 26.5062 189.719 26.0077C189.567 25.5092 189.525 24.9836 189.596 24.4673C189.527 23.9494 189.57 23.4226 189.722 22.9227C189.874 22.4227 190.131 21.9612 190.477 21.5694C190.823 21.1777 191.249 20.8647 191.726 20.6519C192.203 20.439 192.72 20.3311 193.243 20.3356C195.443 20.3356 196.771 21.839 196.771 24.3223V24.8669H191.186V24.9544C191.162 25.2446 191.198 25.5367 191.293 25.812C191.389 26.0873 191.54 26.3397 191.738 26.553C191.937 26.7664 192.177 26.9359 192.445 27.0507C192.713 27.1656 193.001 27.2232 193.293 27.22C193.666 27.2648 194.044 27.1976 194.379 27.0269C194.714 26.8562 194.991 26.5897 195.174 26.2613L196.677 26.2613ZM191.186 23.7126H195.181C195.201 23.4472 195.164 23.1806 195.075 22.93C194.985 22.6793 194.845 22.4502 194.661 22.2572C194.478 22.0643 194.256 21.9118 194.01 21.8096C193.765 21.7075 193.5 21.6578 193.234 21.6639C192.964 21.6606 192.696 21.7112 192.446 21.813C192.196 21.9148 191.969 22.0656 191.778 22.2565C191.587 22.4474 191.437 22.6746 191.335 22.9247C191.233 23.1748 191.183 23.4427 191.186 23.7126H191.186Z" fill="#FFFBE9"/>
</svg>
