<svg width="218" height="64" viewBox="0 0 218 64" fill="none" xmlns="http://www.w3.org/2000/svg">
<path d="M15.8699 63.9967C15.3118 63.9967 14.7672 63.9901 14.2135 63.9788C13.0664 63.9651 11.9219 63.8739 10.7896 63.7059C9.73374 63.5398 8.7109 63.2308 7.75481 62.7892C6.80749 62.3512 5.94346 61.7769 5.19582 61.0883C4.43735 60.4078 3.80589 59.6185 3.32647 58.7518C2.84176 57.8794 2.50631 56.9443 2.33181 55.9791C2.14336 54.9419 2.04141 53.8932 2.02682 52.842C2.0152 52.4891 2 51.3143 2 51.3143V12.6644C2 12.6644 2.01619 11.5076 2.02691 11.1677C2.04088 10.1181 2.14224 9.07105 2.33012 8.03552C2.50495 7.06766 2.84065 6.12987 3.32562 5.25464C3.80329 4.38849 4.43124 3.59864 5.18514 2.9157C5.93819 2.22628 6.80498 1.64903 7.75392 1.20499C8.70781 0.76477 9.72871 0.457986 10.7824 0.29492C11.9185 0.125209 13.0669 0.0334558 14.218 0.0204288L15.8708 0H204.12L205.793 0.0212486C206.933 0.0336283 208.071 0.124563 209.197 0.29328C210.261 0.458392 211.293 0.767317 212.258 1.2099C214.159 2.10476 215.706 3.52051 216.681 5.25872C217.159 6.12791 217.489 7.05805 217.662 8.01755C217.852 9.06158 217.958 10.1169 217.98 11.1751C217.986 11.6489 217.986 12.1579 217.986 12.6644C218 13.2918 218 13.889 218 14.4911V49.5071C218 50.115 218 50.7081 217.986 51.3061C217.986 51.8502 217.986 52.3486 217.978 52.8616C217.957 53.9009 217.852 54.9373 217.665 55.9627C217.494 56.9349 217.161 57.8773 216.676 58.7568C216.193 59.6141 215.566 60.3966 214.816 61.0752C214.068 61.7675 213.202 62.3452 212.252 62.786C211.29 63.231 210.26 63.5411 209.197 63.7059C208.065 63.8748 206.92 63.966 205.773 63.9788C205.237 63.9901 204.675 63.9967 204.129 63.9967L202.144 64L15.8699 63.9967Z" fill="white"/>
<path d="M53.6757 32.4797C53.6929 31.1443 54.0476 29.8349 54.7069 28.6734C55.3661 27.5118 56.3084 26.5359 57.4462 25.8365C56.7234 24.8042 55.7699 23.9547 54.6614 23.3554C53.5529 22.7561 52.3199 22.4236 51.0603 22.3842C48.3736 22.1021 45.7688 23.9919 44.3997 23.9919C43.0041 23.9919 40.8961 22.4122 38.6261 22.4589C37.1578 22.5063 35.7269 22.9333 34.4727 23.6982C33.2185 24.4631 32.1838 25.5398 31.4694 26.8235C28.375 32.1809 30.6832 40.0546 33.6473 44.3852C35.1304 46.5057 36.8636 48.8745 39.1316 48.7905C41.3509 48.6984 42.1797 47.3753 44.8586 47.3753C47.5126 47.3753 48.2903 48.7905 50.6042 48.7371C52.9856 48.6984 54.486 46.6071 55.917 44.4664C56.9826 42.9555 57.8025 41.2855 58.3465 39.5184C56.963 38.9333 55.7823 37.9538 54.9517 36.7021C54.1211 35.4504 53.6773 33.9819 53.6757 32.4797Z" fill="black"/>
<path d="M49.3055 19.5381C50.604 17.9794 51.2436 15.9759 51.0887 13.9531C49.105 14.1615 47.2726 15.1096 45.9566 16.6085C45.3132 17.3408 44.8204 18.1927 44.5064 19.1155C44.1924 20.0383 44.0634 21.014 44.1267 21.9867C45.1189 21.9969 46.1005 21.7819 46.9976 21.3577C47.8946 20.9336 48.6838 20.3114 49.3055 19.5381Z" fill="black"/>
<path d="M81.7289 43.4243H74.1555L72.3367 48.7946H69.1289L76.3024 28.9258H79.6351L86.8086 48.7946H83.5461L81.7289 43.4243ZM74.9398 40.9461H80.943L77.9837 32.2305H77.9008L74.9398 40.9461Z" fill="black"/>
<path d="M102.301 41.5503C102.301 46.0519 99.8917 48.9441 96.2558 48.9441C95.3348 48.9923 94.4188 48.7801 93.6127 48.3319C92.8066 47.8837 92.1431 47.2175 91.698 46.4097H91.6292V53.5847H88.6558V34.3066H91.5339V36.716H91.5886C92.0542 35.912 92.7289 35.2493 93.5411 34.7984C94.3533 34.3474 95.2726 34.1251 96.2011 34.155C99.8776 34.155 102.301 37.0613 102.301 41.5503ZM99.2449 41.5503C99.2449 38.6175 97.7292 36.6894 95.4167 36.6894C93.1449 36.6894 91.6167 38.6581 91.6167 41.5503C91.6167 44.4691 93.1449 46.4238 95.4167 46.4238C97.7292 46.4238 99.2449 44.5097 99.2449 41.5503Z" fill="black"/>
<path d="M118.244 41.5503C118.244 46.0519 115.835 48.9441 112.199 48.9441C111.278 48.9923 110.362 48.7801 109.556 48.3319C108.75 47.8836 108.086 47.2175 107.641 46.4097H107.573V53.5847H104.599V34.3066H107.477V36.7159H107.532C107.997 35.912 108.672 35.2493 109.484 34.7983C110.297 34.3474 111.216 34.1251 112.144 34.155C115.821 34.155 118.244 37.0613 118.244 41.5503ZM115.188 41.5503C115.188 38.6175 113.673 36.6894 111.36 36.6894C109.088 36.6894 107.56 38.6581 107.56 41.5503C107.56 44.4691 109.088 46.4238 111.36 46.4238C113.673 46.4238 115.188 44.5097 115.188 41.5503H115.188Z" fill="black"/>
<path d="M128.782 43.2579C129.002 45.2282 130.916 46.5219 133.532 46.5219C136.038 46.5219 137.841 45.2282 137.841 43.4516C137.841 41.9094 136.754 40.986 134.179 40.3531L131.604 39.7328C127.956 38.8516 126.262 37.1453 126.262 34.3766C126.262 30.9484 129.249 28.5938 133.491 28.5938C137.69 28.5938 140.568 30.9484 140.665 34.3766H137.663C137.484 32.3937 135.845 31.1969 133.449 31.1969C131.054 31.1969 129.415 32.4078 129.415 34.1703C129.415 35.575 130.462 36.4016 133.023 37.0343L135.212 37.5718C139.288 38.5359 140.982 40.1734 140.982 43.0796C140.982 46.7968 138.021 49.1249 133.312 49.1249C128.905 49.1249 125.93 46.8515 125.738 43.2577L128.782 43.2579Z" fill="black"/>
<path d="M147.399 30.8809V34.309H150.154V36.6637H147.399V44.6496C147.399 45.8902 147.951 46.4684 149.162 46.4684C149.489 46.4627 149.815 46.4397 150.14 46.3996V48.7402C149.596 48.8419 149.042 48.888 148.488 48.8777C145.556 48.8777 144.412 47.7761 144.412 44.9667V36.6637H142.306V34.309H144.412V30.8809H147.399Z" fill="black"/>
<path d="M151.75 41.5527C151.75 36.9949 154.434 34.1309 158.62 34.1309C162.82 34.1309 165.492 36.9949 165.492 41.5527C165.492 46.1231 162.834 48.9746 158.62 48.9746C154.407 48.9746 151.75 46.123 151.75 41.5527ZM162.462 41.5527C162.462 38.4262 161.029 36.5809 158.62 36.5809C156.21 36.5809 154.779 38.4402 154.779 41.5527C154.779 44.6918 156.21 46.5231 158.62 46.5231C161.029 46.5231 162.462 44.6918 162.462 41.5527H162.462Z" fill="black"/>
<path d="M167.943 34.3064H170.779V36.772H170.848C171.039 36.002 171.491 35.3215 172.125 34.8448C172.76 34.3682 173.539 34.1246 174.332 34.1549C174.675 34.1537 175.016 34.1909 175.351 34.2658V37.0471C174.918 36.9149 174.467 36.8542 174.015 36.8674C173.583 36.8498 173.152 36.926 172.752 37.0906C172.353 37.2552 171.993 37.5044 171.699 37.821C171.405 38.1377 171.182 38.5142 171.047 38.9249C170.912 39.3356 170.867 39.7706 170.916 40.2002V48.7924H167.943L167.943 34.3064Z" fill="black"/>
<path d="M189.06 44.5402C188.66 47.1699 186.099 48.9746 182.823 48.9746C178.609 48.9746 175.993 46.1512 175.993 41.6215C175.993 37.0777 178.623 34.1309 182.698 34.1309C186.706 34.1309 189.226 36.884 189.226 41.2762V42.2949H178.995V42.4746C178.948 43.0077 179.014 43.5448 179.191 44.0501C179.367 44.5555 179.649 45.0175 180.017 45.4056C180.386 45.7937 180.833 46.0989 181.328 46.301C181.824 46.5031 182.357 46.5974 182.892 46.5777C183.594 46.6436 184.299 46.4808 184.902 46.1137C185.505 45.7466 185.973 45.1948 186.237 44.5402L189.06 44.5402ZM179.009 40.2168H186.251C186.278 39.7374 186.205 39.2577 186.038 38.8078C185.87 38.3579 185.611 37.9474 185.278 37.6022C184.944 37.257 184.543 36.9844 184.099 36.8017C183.655 36.6189 183.178 36.5299 182.698 36.5402C182.214 36.5373 181.734 36.6304 181.286 36.814C180.838 36.9976 180.43 37.2681 180.087 37.6099C179.744 37.9517 179.472 38.358 179.287 38.8055C179.102 39.2529 179.008 39.7326 179.009 40.2168V40.2168Z" fill="black"/>
<path d="M74.5676 13.9698C75.191 13.9251 75.8165 14.0193 76.3991 14.2456C76.9817 14.4718 77.5068 14.8246 77.9365 15.2784C78.3662 15.7322 78.6899 16.2757 78.8841 16.8698C79.0784 17.4638 79.1384 18.0935 79.0598 18.7136C79.0598 21.7636 77.4113 23.5168 74.5676 23.5168H71.1191V13.9698H74.5676ZM72.6019 22.1666H74.4019C74.8474 22.1932 75.2932 22.1202 75.7068 21.9528C76.1205 21.7854 76.4916 21.5279 76.7932 21.199C77.0948 20.8701 77.3193 20.4781 77.4502 20.0515C77.5812 19.6249 77.6154 19.1745 77.5504 18.733C77.6107 18.2933 77.573 17.8456 77.44 17.4222C77.3071 16.9987 77.082 16.6099 76.7811 16.2836C76.4802 15.9573 76.1109 15.7017 75.6996 15.5349C75.2882 15.3681 74.8451 15.2944 74.4019 15.319H72.6019V22.1666Z" fill="black"/>
<path d="M80.7348 19.914C80.6895 19.4405 80.7437 18.9628 80.8938 18.5115C81.044 18.0602 81.2868 17.6452 81.6067 17.2933C81.9266 16.9413 82.3165 16.6601 82.7515 16.4676C83.1865 16.2752 83.6568 16.1758 84.1325 16.1758C84.6081 16.1758 85.0785 16.2752 85.5135 16.4676C85.9484 16.6601 86.3384 16.9413 86.6583 17.2933C86.9782 17.6452 87.221 18.0602 87.3711 18.5115C87.5213 18.9628 87.5754 19.4405 87.5301 19.914C87.5763 20.3879 87.5228 20.8663 87.373 21.3184C87.2233 21.7704 86.9806 22.1861 86.6606 22.5388C86.3406 22.8914 85.9504 23.1732 85.515 23.3661C85.0796 23.559 84.6087 23.6586 84.1325 23.6586C83.6563 23.6586 83.1854 23.559 82.75 23.3661C82.3146 23.1732 81.9243 22.8914 81.6043 22.5388C81.2843 22.1861 81.0417 21.7704 80.8919 21.3184C80.7422 20.8663 80.6887 20.3879 80.7348 19.914ZM86.0676 19.914C86.0676 18.3523 85.3661 17.439 84.1348 17.439C82.8989 17.439 82.2036 18.3523 82.2036 19.914C82.2036 21.4882 82.8989 22.3945 84.1348 22.3945C85.3661 22.3945 86.0676 21.482 86.0676 19.914H86.0676Z" fill="black"/>
<path d="M96.5631 23.5172H95.0881L93.599 18.2109H93.4865L92.0037 23.5172H90.5428L88.5568 16.3125H89.999L91.2896 21.8101H91.3959L92.8771 16.3125H94.2412L95.7225 21.8101H95.835L97.1193 16.3125H98.5412L96.5631 23.5172Z" fill="black"/>
<path d="M100.211 16.3122H101.58V17.4567H101.686C101.867 17.0456 102.171 16.701 102.556 16.471C102.941 16.2409 103.389 16.1367 103.836 16.1731C104.187 16.1468 104.539 16.1996 104.866 16.3278C105.194 16.4559 105.488 16.6561 105.728 16.9134C105.967 17.1708 106.146 17.4787 106.25 17.8144C106.354 18.1501 106.382 18.505 106.33 18.8528V23.5168H104.908V19.2098C104.908 18.052 104.405 17.4762 103.354 17.4762C103.116 17.4652 102.878 17.5057 102.657 17.595C102.436 17.6843 102.237 17.8204 102.074 17.9938C101.91 18.1672 101.786 18.3739 101.71 18.5997C101.634 18.8255 101.608 19.0651 101.633 19.302V23.5169H100.211L100.211 16.3122Z" fill="black"/>
<path d="M108.596 13.5H110.018V23.5172H108.596V13.5Z" fill="black"/>
<path d="M111.994 19.9102C111.949 19.4367 112.003 18.959 112.153 18.5077C112.303 18.0563 112.546 17.6414 112.866 17.2894C113.186 16.9374 113.576 16.6562 114.011 16.4637C114.446 16.2713 114.916 16.1719 115.392 16.1719C115.868 16.1719 116.338 16.2713 116.773 16.4637C117.208 16.6562 117.598 16.9374 117.918 17.2894C118.238 17.6414 118.481 18.0563 118.631 18.5077C118.781 18.959 118.835 19.4367 118.79 19.9102C118.836 20.3842 118.783 20.8626 118.633 21.3146C118.483 21.7666 118.24 22.1823 117.92 22.535C117.6 22.8876 117.21 23.1694 116.775 23.3623C116.339 23.5551 115.868 23.6548 115.392 23.6548C114.916 23.6548 114.445 23.5551 114.009 23.3623C113.574 23.1694 113.184 22.8876 112.864 22.535C112.544 22.1823 112.301 21.7666 112.151 21.3146C112.001 20.8626 111.948 20.3842 111.994 19.9102ZM117.327 19.9102C117.327 18.3485 116.625 17.4352 115.394 17.4352C114.158 17.4352 113.463 18.3485 113.463 19.9102C113.463 21.4845 114.158 22.3907 115.394 22.3907C116.625 22.3907 117.327 21.4782 117.327 19.9102H117.327Z" fill="black"/>
<path d="M120.287 21.482C120.287 20.1851 121.253 19.4375 122.967 19.3312L124.918 19.2187V18.5969C124.918 17.8359 124.415 17.4062 123.443 17.4062C122.65 17.4062 122.1 17.6977 121.942 18.207H120.565C120.711 16.9695 121.875 16.1758 123.509 16.1758C125.315 16.1758 126.334 17.075 126.334 18.5969V23.5195H124.965V22.507H124.853C124.624 22.8702 124.304 23.1663 123.924 23.365C123.543 23.5638 123.117 23.658 122.689 23.6382C122.386 23.6697 122.081 23.6374 121.791 23.5435C121.502 23.4496 121.236 23.2961 121.009 23.093C120.783 22.8898 120.602 22.6415 120.478 22.364C120.353 22.0866 120.288 21.7861 120.287 21.482ZM124.918 20.8664V20.2641L123.159 20.3766C122.167 20.443 121.717 20.7805 121.717 21.4156C121.717 22.064 122.279 22.4414 123.053 22.4414C123.279 22.4643 123.508 22.4414 123.726 22.3741C123.944 22.3068 124.145 22.1963 124.319 22.0494C124.494 21.9024 124.636 21.722 124.739 21.5187C124.842 21.3155 124.903 21.0937 124.918 20.8664Z" fill="black"/>
<path d="M128.203 19.9117C128.203 17.6352 129.373 16.193 131.194 16.193C131.644 16.1722 132.091 16.2801 132.482 16.5039C132.873 16.7278 133.193 17.0583 133.403 17.457H133.509V13.5H134.931V23.5172H133.569V22.3789H133.456C133.23 22.7749 132.899 23.1013 132.5 23.3229C132.101 23.5445 131.649 23.6527 131.194 23.6359C129.361 23.636 128.203 22.1938 128.203 19.9117ZM129.672 19.9117C129.672 21.4399 130.392 22.3594 131.597 22.3594C132.795 22.3594 133.536 21.4266 133.536 19.918C133.536 18.4164 132.787 17.4703 131.597 17.4703C130.4 17.4703 129.672 18.3961 129.672 19.9117H129.672Z" fill="black"/>
<path d="M140.813 19.914C140.768 19.4405 140.822 18.9628 140.972 18.5115C141.123 18.0602 141.365 17.6452 141.685 17.2933C142.005 16.9413 142.395 16.6601 142.83 16.4676C143.265 16.2752 143.735 16.1758 144.211 16.1758C144.687 16.1758 145.157 16.2752 145.592 16.4676C146.027 16.6601 146.417 16.9413 146.737 17.2933C147.057 17.6452 147.3 18.0602 147.45 18.5115C147.6 18.9628 147.654 19.4405 147.609 19.914C147.655 20.3879 147.601 20.8663 147.452 21.3184C147.302 21.7704 147.059 22.1861 146.739 22.5388C146.419 22.8914 146.029 23.1732 145.594 23.3661C145.158 23.559 144.687 23.6586 144.211 23.6586C143.735 23.6586 143.264 23.559 142.829 23.3661C142.393 23.1732 142.003 22.8914 141.683 22.5388C141.363 22.1861 141.12 21.7704 140.971 21.3184C140.821 20.8663 140.767 20.3879 140.813 19.914ZM146.146 19.914C146.146 18.3523 145.445 17.439 144.213 17.439C142.978 17.439 142.282 18.3523 142.282 19.914C142.282 21.4882 142.978 22.3945 144.213 22.3945C145.445 22.3945 146.146 21.482 146.146 19.914Z" fill="black"/>
<path d="M149.517 16.3122H150.886V17.4567H150.992C151.172 17.0456 151.476 16.701 151.862 16.471C152.247 16.2409 152.695 16.1367 153.142 16.1731C153.493 16.1468 153.845 16.1996 154.172 16.3278C154.499 16.4559 154.794 16.6561 155.033 16.9134C155.273 17.1708 155.451 17.4787 155.556 17.8144C155.66 18.1501 155.687 18.505 155.636 18.8528V23.5168H154.214V19.2098C154.214 18.052 153.711 17.4762 152.659 17.4762C152.421 17.4652 152.184 17.5057 151.963 17.595C151.742 17.6843 151.543 17.8204 151.38 17.9938C151.216 18.1672 151.092 18.3739 151.016 18.5997C150.94 18.8255 150.914 19.0651 150.939 19.302V23.5169H149.517V16.3122Z" fill="black"/>
<path d="M163.67 14.5195V16.3461H165.231V17.5438H163.67V21.2484C163.67 22.0031 163.981 22.3336 164.689 22.3336C164.87 22.333 165.051 22.3221 165.231 22.3008V23.4851C164.976 23.5308 164.717 23.5551 164.458 23.5578C162.876 23.5578 162.247 23.0015 162.247 21.6125V17.5437H161.103V16.346H162.247V14.5195H163.67Z" fill="black"/>
<path d="M167.173 13.5H168.583V17.4703H168.695C168.884 17.0554 169.196 16.7089 169.59 16.4779C169.983 16.2469 170.437 16.1428 170.892 16.1797C171.241 16.1607 171.589 16.2189 171.913 16.3502C172.237 16.4815 172.527 16.6826 172.764 16.9391C173.001 17.1956 173.179 17.5013 173.284 17.8343C173.389 18.1673 173.42 18.5195 173.373 18.8656V23.5172H171.95V19.2164C171.95 18.0656 171.414 17.4828 170.409 17.4828C170.165 17.4628 169.919 17.4964 169.689 17.5812C169.459 17.6661 169.25 17.8002 169.077 17.9742C168.905 18.1482 168.772 18.3578 168.689 18.5885C168.605 18.8191 168.573 19.0651 168.595 19.3094V23.5172H167.173L167.173 13.5Z" fill="black"/>
<path d="M181.664 21.5704C181.471 22.2289 181.052 22.7985 180.482 23.1795C179.911 23.5605 179.224 23.7288 178.542 23.6548C178.068 23.6673 177.596 23.5764 177.16 23.3884C176.724 23.2003 176.334 22.9196 176.017 22.5658C175.701 22.212 175.465 21.7935 175.326 21.3394C175.187 20.8853 175.149 20.4064 175.214 19.9361C175.151 19.4642 175.19 18.9844 175.328 18.5289C175.467 18.0734 175.701 17.653 176.016 17.2961C176.331 16.9391 176.719 16.6541 177.154 16.4601C177.589 16.2662 178.06 16.1679 178.536 16.172C180.541 16.172 181.75 17.5416 181.75 19.804V20.3001H176.663V20.3798C176.64 20.6442 176.674 20.9103 176.76 21.1611C176.847 21.4119 176.985 21.6419 177.165 21.8362C177.346 22.0305 177.565 22.185 177.809 22.2896C178.053 22.3942 178.316 22.4468 178.581 22.4438C178.921 22.4847 179.266 22.4234 179.571 22.2679C179.876 22.1123 180.129 21.8696 180.295 21.5704L181.664 21.5704ZM176.663 19.2486H180.302C180.32 19.0068 180.287 18.7639 180.205 18.5355C180.124 18.3072 179.995 18.0984 179.828 17.9226C179.661 17.7469 179.459 17.608 179.235 17.5149C179.011 17.4218 178.771 17.3766 178.528 17.3822C178.282 17.3791 178.038 17.4252 177.81 17.5179C177.583 17.6107 177.376 17.748 177.202 17.922C177.028 18.0959 176.891 18.3029 176.798 18.5307C176.705 18.7586 176.659 19.0026 176.663 19.2486H176.663Z" fill="black"/>
</svg>
