<svg width="25" height="26" viewBox="0 0 25 26" fill="none" xmlns="http://www.w3.org/2000/svg">
<path fill-rule="evenodd" clip-rule="evenodd" d="M12.3344 2.81079C13.8276 2.80448 15.3188 2.92269 16.7924 3.16421C17.9525 3.35977 18.532 3.45755 19.0169 4.0544C19.5007 4.64909 19.4753 5.29349 19.4246 6.578L19.4243 6.58542C19.2491 11.015 18.2927 16.5465 13.0982 17.0354V20.6349H14.5547C14.7901 20.635 15.0182 20.7167 15.2001 20.866C15.3821 21.0152 15.5067 21.2229 15.5529 21.4538L15.7464 22.4173H18.4455C18.6481 22.4173 18.8424 22.4978 18.9856 22.641C19.1289 22.7843 19.2094 22.9786 19.2094 23.1812C19.2094 23.3838 19.1289 23.5781 18.9856 23.7213C18.8424 23.8646 18.6481 23.945 18.4455 23.945H6.22325C6.02065 23.945 5.82635 23.8646 5.6831 23.7213C5.53984 23.5781 5.45936 23.3838 5.45936 23.1812C5.45936 22.9786 5.53984 22.7843 5.6831 22.641C5.82635 22.4978 6.02065 22.4173 6.22325 22.4173H8.92232L9.11584 21.4538C9.16197 21.2229 9.28662 21.0152 9.46859 20.866C9.65056 20.7167 9.87862 20.635 10.114 20.6349H11.5705V17.0354C6.37603 16.5465 5.42066 11.0139 5.24445 6.58542C5.19353 5.29597 5.16806 4.65125 5.65186 4.0544C6.13668 3.45755 6.71621 3.35977 7.8763 3.16421C9.02112 2.97069 10.5183 2.81079 12.3344 2.81079ZM22.5188 9.1647V9.09035C22.5188 8.02803 22.5188 7.49636 22.2306 7.09609C21.9983 6.77423 21.6256 6.60211 20.9625 6.37192L20.9605 6.42488L20.9503 6.64998C20.882 8.37942 20.6957 10.4022 20.1395 12.2844L20.9472 11.8363L20.9574 11.8306C21.7166 11.4076 22.0981 11.1951 22.308 10.8381C22.5188 10.4796 22.5188 10.0406 22.5188 9.1647ZM2.14844 9.1647V9.09035C2.14844 8.02905 2.14844 7.49636 2.43668 7.09609C2.6689 6.77423 3.04168 6.60211 3.70575 6.37192L3.70677 6.42488L3.71696 6.64998C3.7852 8.37942 3.97159 10.4022 4.52871 12.2844L3.72001 11.8363L3.70984 11.8306C2.95068 11.4076 2.56917 11.1951 2.35927 10.8381C2.14844 10.4796 2.14844 10.0406 2.14844 9.1647Z" fill="#131312"/>
</svg>
