<svg width="118" height="118" viewBox="0 0 118 118" fill="none" xmlns="http://www.w3.org/2000/svg">
<path d="M53.4 24.4999C58 16.3999 69.7 16.3999 74.3 24.4999L79.8 34.2999C81.5 37.2999 84.5 39.4999 87.9 40.1999L98.9 42.3999C108.1 44.1999 111.7 55.3999 105.4 62.2999L97.8 70.5999C95.4 73.1999 94.3 76.5999 94.7 80.0999L96 91.2999C97.1 100.6 87.6 107.5 79.1 103.6L68.9 98.8999C65.7 97.3999 62.1 97.3999 58.9 98.8999L48.7 103.6C40.2 107.5 30.7 100.6 31.8 91.2999L33 80.0999C33.4 76.5999 32.3 73.1999 29.9 70.5999L22.3 62.2999C16 55.3999 19.6 44.2999 28.8 42.3999L39.8 40.1999C43.2 39.4999 46.2 37.3999 47.9 34.2999L53.4 24.4999Z" fill="black"/>
<path d="M56 25.9999C59.4 19.8999 68.2 19.8999 71.7 25.9999L77.2 35.7999C79.3 39.5999 83 42.2999 87.3 43.0999L98.3 45.2999C105.2 46.6999 107.9 55.0999 103.1 60.1999L95.5 68.4999C92.5 71.6999 91.1 75.9999 91.6 80.3999L93 91.5999C93.8 98.5999 86.7 103.7 80.3 100.8L70.1 96.0999C66.1 94.2999 61.6 94.2999 57.6 96.0999L47.4 100.8C41 103.7 33.9 98.4999 34.7 91.5999L36 80.4999C36.5 76.1999 35.1 71.7999 32.1 68.5999L24.5 60.2999C19.8 55.0999 22.5 46.7999 29.3 45.3999L40.3 43.1999C44.6 42.2999 48.3 39.6999 50.4 35.8999L56 25.9999Z" stroke="black" stroke-width="6"/>
<path d="M60.9 71.8999H55.9L53.2 80.3999L50.4 79.3999L52.8 71.8999H48.5L45.8 80.3999L43 79.3999L45.4 71.8999H42.9V69.0999H46.2L48 63.5999H44V60.7999H49L51.7 52.2999L54.5 53.2999L52.1 60.7999H56.4L59.1 52.2999L61.9 53.2999L59.5 60.7999H62V63.5999H58.6L56.9 69.0999H61L60.9 71.8999ZM51.2 63.5999L49.5 69.0999H53.7L55.5 63.5999H51.2ZM74.2 52.3999H76.4V74.4999C76.4 76.8999 77.3 77.0999 81 77.2999V79.9999H64.6V77.2999C68.8 76.9999 69.2 76.8999 69.2 74.4999V60.1999H64.6V57.7999L66 57.4999C69.8 56.8999 71.9 55.1999 74.2 52.3999Z" fill="black"/>
<path d="M49 20.6C53.3 12.9 64.4 12.9 68.7 20.6L73.9 29.7999C75.5 32.6999 78.3 34.6999 81.5 35.2999L91.9 37.4C100.5 39.1 104 49.7 98 56.2L90.8 64C88.6 66.4 87.5 69.7 87.9 73L89.1 83.5C90.1 92.3 81.2 98.8 73.1 95.1L63.4 90.7C60.4 89.3 57 89.3 54 90.7L44.3 95.1C36.3 98.8 27.3 92.3 28.3 83.5L29.5 73C29.9 69.7 28.8 66.5 26.6 64L19.4 56.2C13.4 49.7 16.8 39.2 25.5 37.4L35.9 35.2999C39.1 34.5999 41.9 32.5999 43.5 29.7999L49 20.6Z" fill="#FF8B45"/>
<path d="M51 19.9999C54.4 13.8999 63.2 13.8999 66.7 19.9999L72.2 29.7999C74.3 33.5999 78 36.2999 82.3 37.0999L93.3 39.2999C100.2 40.6999 102.9 49.0999 98.1 54.1999L90.5 62.4999C87.5 65.6999 86.1 69.9999 86.6 74.3999L88 85.5999C88.8 92.5999 81.7 97.6999 75.3 94.7999L65.1 90.0999C61.1 88.2999 56.6 88.2999 52.6 90.0999L42.4 94.7999C36 97.6999 28.9 92.4999 29.7 85.5999L31 74.4999C31.5 70.1999 30.1 65.7999 27.1 62.5999L19.5 54.2999C14.8 49.0999 17.5 40.7999 24.3 39.3999L35.3 37.1999C39.6 36.2999 43.3 33.6999 45.4 29.8999L51 19.9999Z" stroke="black" stroke-width="6"/>
<path d="M55.9 65.8999H50.9L48.2 74.3999L45.4 73.3999L47.8 65.8999H43.5L40.8 74.3999L38 73.3999L40.4 65.8999H37.9V63.0999H41.2L43 57.5999H39V54.7999H44L46.7 46.2999L49.5 47.2999L47.1 54.7999H51.4L54.1 46.2999L56.9 47.2999L54.5 54.7999H57V57.5999H53.6L51.9 63.0999H56L55.9 65.8999ZM46.2 57.5999L44.5 63.0999H48.7L50.5 57.5999H46.2ZM69.2 46.3999H71.4V68.4999C71.4 70.8999 72.3 71.0999 76 71.2999V73.9999H59.6V71.2999C63.8 70.9999 64.2 70.8999 64.2 68.4999V54.1999H59.6V51.7999L61 51.4999C64.8 50.8999 66.9 49.1999 69.2 46.3999Z" fill="#131312"/>
</svg>
