<svg width="253" height="130" viewBox="0 0 253 130" fill="none" xmlns="http://www.w3.org/2000/svg">
<rect x="2.2713" y="55.6588" width="229.761" height="71.5826" rx="10.4672" transform="rotate(-4.3005 2.2713 55.6588)" fill="#FF8B45"/>
<rect x="2.2713" y="55.6588" width="229.761" height="71.5826" rx="10.4672" transform="rotate(-4.3005 2.2713 55.6588)" stroke="#131312" stroke-width="4"/>
<path d="M26.3463 70.7982L58.8687 68.3525L60.5009 80.0821L56.5723 80.3775C53.9157 74.9762 52.6545 72.1705 48.726 72.4659L47.7314 72.5407L49.5937 97.3055C49.7919 99.9411 50.7319 100.471 54.0252 100.373L54.2832 103.804L36.0826 105.173L35.8246 101.742C39.1451 101.342 40.0451 100.674 39.8469 98.0384L37.9846 73.2736L36.9403 73.3522C33.0118 73.6476 32.1844 76.6104 30.3654 82.3483L26.4866 82.6399L26.3463 70.7982ZM74.84 74.0028L75.4944 82.7053C76.9824 75.8921 78.9364 73.9448 82.4174 73.6831C83.5114 73.6008 84.0771 73.8083 84.7 74.1115L85.2909 81.9686L84.0974 82.0584C80.9645 82.294 77.7471 82.736 75.629 84.4956L76.4966 96.0326C76.6611 98.2206 77.8161 98.2838 80.6805 98.4685L80.9311 101.8L64.5704 103.031L64.3199 99.6988C66.5352 99.2321 67.3122 98.9237 67.1401 96.6361L66.0519 82.1651L63.0465 79.4406L62.9119 77.6504L73.1492 74.13L74.84 74.0028ZM100.043 72.3576C107.254 71.8154 111.373 76.7067 111.84 82.9227L111.986 84.8621L95.7247 86.085C96.0911 90.9584 99.5019 93.7525 103.878 93.4234C107.061 93.1841 109.258 91.8186 110.785 89.5034L112.508 90.474C111.641 96.2403 107.844 100.277 101.479 100.755C94.0692 101.312 88.1717 96.7049 87.5509 88.45C86.8666 79.3497 92.5842 72.9185 100.043 72.3576ZM99.4561 75.8524C96.6215 76.0656 95.6674 79.338 95.5998 83.0938L103.755 82.4805C103.399 78.4065 102.042 75.658 99.4561 75.8524ZM136.113 91.4494L135.163 78.8184C135.01 76.7795 134.232 75.7378 131.894 75.9136C130.005 76.0557 128.493 76.5695 127.184 77.118L128.306 92.0365C128.478 94.324 129.044 94.5316 131.304 94.6616L131.554 97.9935L116.387 99.134L116.137 95.8022C118.352 95.3356 119.129 95.0271 118.957 92.7396L117.869 78.2686L114.863 75.544L114.729 73.7538L125.016 70.2297L126.657 70.1063L127.068 75.5764C128.931 73.0858 131.947 69.9585 136.273 69.6332C141.146 69.2667 144.03 71.7004 144.445 77.2202L145.462 90.7464C145.634 93.0339 146.399 93.2265 148.659 93.3565L148.91 96.6884L133.842 97.8214L133.591 94.4896C135.807 94.023 136.285 93.7369 136.113 91.4494ZM170.035 95.5999L169.668 90.7265C168.343 93.7267 166.007 95.9028 161.78 96.2206C155.812 96.6694 151.241 92.4122 150.628 84.2567C149.891 74.4602 155.497 68.5376 163.503 67.9355C165.393 67.7934 167.068 68.1176 168.019 68.7962L167.656 63.9725L164.7 61.2442L164.562 59.4043L174.909 56.6758L176.5 56.5562L178.804 87.1889C178.931 88.8797 179.4 89.7946 180.895 89.7322L182.089 89.6424L182.347 93.0737L171.924 95.4578L170.035 95.5999ZM164.695 71.1466C161.164 71.4121 159.563 75.3833 159.974 80.8534C160.43 86.9203 162.991 90.3785 166.82 90.0905C167.814 90.0157 168.74 89.696 169.56 89.2844L168.546 75.8079C168.299 72.5258 167.331 70.9484 164.695 71.1466ZM196.467 93.2121L184.157 71.8335C183.581 70.8266 183.008 70.5196 181.223 70.0537L180.976 66.7717L197.685 65.5152L197.931 68.7972C195.372 69.3398 194.595 69.6483 194.685 70.8418C194.714 71.2396 194.848 71.6797 195.377 72.74L200.317 82.5705L203.828 72.0546C204.193 70.9269 204.262 70.5216 204.232 70.1238C204.143 68.9303 203.428 68.734 200.816 68.5804L200.569 65.2983L211.41 64.4831L211.657 67.7651C209.961 68.4928 209.436 68.8323 209.021 69.9637L199.467 96.5372C197.727 101.319 195.646 103.576 192.165 103.838C190.225 103.983 188.574 103.307 187.742 102.22L187.387 97.4956L190.371 97.2712C193.852 97.0095 195.13 96.7133 196.256 93.7281L196.467 93.2121Z" fill="#131312"/>
<g filter="url(#filter0_d_8_78)">
<path d="M214.956 11.6726C216.91 7.50193 222.672 7.0687 225.228 10.9002L228.304 15.5114C229.257 16.9408 230.786 17.8846 232.491 18.0972L237.991 18.7831C242.562 19.353 244.754 24.6988 241.9 28.3137L238.465 32.6643C237.4 34.0128 236.975 35.7579 237.3 37.4452L238.347 42.8885C239.217 47.4113 234.811 51.1484 230.491 49.5511L225.292 47.6286C223.68 47.0327 221.889 47.1674 220.385 47.9976L215.531 50.6759C211.499 52.9013 206.583 49.8651 206.767 45.263L206.989 39.7243C207.058 38.0074 206.376 36.3456 205.122 35.1714L201.075 31.3834C197.712 28.2359 199.081 22.6223 203.514 21.3754L208.851 19.8748C210.505 19.4096 211.875 18.2478 212.604 16.6919L214.956 11.6726Z" fill="#FF8B45"/>
<path d="M216.294 12.2997C217.76 9.17176 222.081 8.84684 223.998 11.7205L227.074 16.3317C228.266 18.1184 230.176 19.2982 232.308 19.564L237.808 20.2498C241.236 20.6772 242.88 24.6866 240.74 27.3978L237.305 31.7483C235.974 33.4341 235.442 35.6154 235.848 37.7245L236.896 43.1678C237.548 46.5599 234.243 49.3628 231.003 48.1647L225.804 46.2423C223.79 45.4974 221.551 45.6658 219.67 46.7035L214.817 49.3818C211.793 51.0508 208.106 48.7737 208.244 45.3221L208.466 39.7834C208.552 37.6373 207.7 35.56 206.132 34.0923L202.085 30.3043C199.563 27.9437 200.589 23.7335 203.915 22.7983L209.251 21.2976C211.318 20.7162 213.031 19.264 213.942 17.3191L216.294 12.2997Z" stroke="black" stroke-width="2.95616"/>
</g>
<defs>
<filter id="filter0_d_8_78" x="199.199" y="8.26859" width="49.8918" height="49.0651" filterUnits="userSpaceOnUse" color-interpolation-filters="sRGB">
<feFlood flood-opacity="0" result="BackgroundImageFix"/>
<feColorMatrix in="SourceAlpha" type="matrix" values="0 0 0 0 0 0 0 0 0 0 0 0 0 0 0 0 0 0 127 0" result="hardAlpha"/>
<feOffset dx="5.91233" dy="5.91233"/>
<feComposite in2="hardAlpha" operator="out"/>
<feColorMatrix type="matrix" values="0 0 0 0 0 0 0 0 0 0 0 0 0 0 0 0 0 0 1 0"/>
<feBlend mode="normal" in2="BackgroundImageFix" result="effect1_dropShadow_8_78"/>
<feBlend mode="normal" in="SourceGraphic" in2="effect1_dropShadow_8_78" result="shape"/>
</filter>
</defs>
</svg>
