<svg width="24" height="24" viewBox="0 0 24 24" fill="none" xmlns="http://www.w3.org/2000/svg">
<path fill-rule="evenodd" clip-rule="evenodd" d="M4.99988 19.9999C4.20423 19.9999 3.44117 19.6838 2.87856 19.1212C2.31595 18.5586 1.99988 17.7955 1.99988 16.9999V6.99988C1.99988 6.20423 2.31595 5.44117 2.87856 4.87856C3.44117 4.31595 4.20423 3.99988 4.99988 3.99988H18.9999C19.7955 3.99988 20.5586 4.31595 21.1212 4.87856C21.6838 5.44117 21.9999 6.20423 21.9999 6.99988V16.9999C21.9999 17.7955 21.6838 18.5586 21.1212 19.1212C20.5586 19.6838 19.7955 19.9999 18.9999 19.9999H4.99988ZM7.62488 8.21988C7.52301 8.13289 7.40471 8.06726 7.27699 8.02688C7.14927 7.9865 7.01474 7.97218 6.88139 7.98479C6.74803 7.9974 6.61857 8.03667 6.50068 8.10027C6.3828 8.16388 6.27889 8.25052 6.19513 8.35505C6.11137 8.45958 6.04946 8.57987 6.01309 8.70879C5.97671 8.83771 5.96661 8.97262 5.98337 9.10551C6.00014 9.23841 6.04343 9.36658 6.11069 9.48243C6.17794 9.59827 6.26778 9.69942 6.37488 9.77988L10.1249 12.7809C10.657 13.2069 11.3183 13.439 11.9999 13.439C12.6815 13.439 13.3428 13.2069 13.8749 12.7809L17.6249 9.78088C17.7274 9.6988 17.8128 9.59733 17.8762 9.48225C17.9395 9.36717 17.9796 9.24075 17.9941 9.11019C18.0086 8.97963 17.9972 8.84749 17.9606 8.72133C17.924 8.59516 17.863 8.47744 17.7809 8.37488C17.6988 8.27232 17.5973 8.18692 17.4822 8.12358C17.3672 8.06023 17.2407 8.02017 17.1102 8.00569C16.9796 7.9912 16.8475 8.00257 16.7213 8.03915C16.5952 8.07573 16.4774 8.1368 16.3749 8.21888L12.6249 11.2189C12.4475 11.3609 12.2271 11.4383 11.9999 11.4383C11.7727 11.4383 11.5522 11.3609 11.3749 11.2189L7.62488 8.21888V8.21988Z" fill="white"/>
</svg>
