<svg width="24" height="24" viewBox="0 0 24 24" fill="none" xmlns="http://www.w3.org/2000/svg">
<g clip-path="url(#clip0_1_1278)">
<path d="M6.20106 20.9999H1.84731V6.97938H6.20106V20.9999ZM4.02156 5.06688C2.62956 5.06688 1.50006 3.91338 1.50006 2.52138C1.50006 1.85263 1.76572 1.21128 2.23859 0.738408C2.71146 0.265535 3.35282 -0.00012207 4.02156 -0.00012207C4.6903 -0.00012207 5.33166 0.265535 5.80453 0.738408C6.2774 1.21128 6.54306 1.85263 6.54306 2.52138C6.54306 3.91338 5.41356 5.06688 4.02156 5.06688ZM22.4956 20.9999H18.1516V14.1749C18.1516 12.5481 18.1186 10.4624 15.8881 10.4624C13.6246 10.4624 13.2773 12.2294 13.2773 14.0579V20.9999H8.92806V6.97938H13.1033V8.89188H13.1641C13.7453 7.79013 15.1651 6.62763 17.2831 6.62763C21.6893 6.62763 22.4993 9.52938 22.4993 13.2981V20.9999H22.4956Z" fill="white"/>
</g>
<defs>
<clipPath id="clip0_1_1278">
<rect width="24" height="24" fill="white"/>
</clipPath>
</defs>
</svg>
