<svg width="146" height="33" viewBox="0 0 146 33" fill="none" xmlns="http://www.w3.org/2000/svg">
<path d="M48.994 19.6484V28.8298C48.6894 28.9129 48.2047 28.996 47.54 29.0791C46.8752 29.1622 46.2244 29.2037 45.5874 29.2037C44.9503 29.2037 44.3826 29.1483 43.884 29.0375C43.4132 28.9544 43.0116 28.7883 42.6792 28.539C42.3468 28.2897 42.0976 27.9435 41.9314 27.5004C41.7652 27.0572 41.6821 26.4756 41.6821 25.7555V3.81975C41.9868 3.76435 42.4715 3.69511 43.1362 3.61202C43.8009 3.50124 44.4379 3.44584 45.0473 3.44584C45.6843 3.44584 46.2382 3.50124 46.7091 3.61202C47.2076 3.69511 47.6231 3.86129 47.9554 4.11056C48.2878 4.35983 48.537 4.70604 48.7032 5.14919C48.8694 5.59233 48.9525 6.17396 48.9525 6.89407V13.4997L57.5938 3.57048C59.4772 3.57048 60.8205 3.93053 61.6237 4.65065C62.4546 5.34306 62.8701 6.17396 62.8701 7.14334C62.8701 7.86346 62.69 8.54202 62.33 9.17905C61.9699 9.81607 61.3883 10.5362 60.5851 11.3394L55.392 16.5325C56.0844 17.308 56.8045 18.1112 57.5523 18.9421C58.3278 19.773 59.0756 20.5901 59.7957 21.3933C60.5435 22.1688 61.2498 22.9166 61.9145 23.6367C62.6069 24.3568 63.2024 24.98 63.701 25.5062C63.701 26.1155 63.5902 26.6556 63.3686 27.1265C63.147 27.5973 62.8424 27.9989 62.4546 28.3313C62.0945 28.6636 61.6791 28.9129 61.2083 29.0791C60.7374 29.2453 60.2389 29.3283 59.7126 29.3283C58.5771 29.3283 57.6492 29.0514 56.9291 28.4974C56.209 27.9158 55.5166 27.2373 54.8519 26.4617L48.994 19.6484Z" fill="white"/>
<path d="M68.6826 29.1206C67.4916 29.1206 66.5499 28.7744 65.8575 28.082C65.1651 27.3896 64.8189 26.4479 64.8189 25.2569V3.7782C65.1236 3.72281 65.6082 3.65357 66.273 3.57048C66.9377 3.45969 67.5747 3.4043 68.184 3.4043C68.8211 3.4043 69.375 3.45969 69.8458 3.57048C70.3444 3.65357 70.7598 3.81975 71.0922 4.06902C71.4245 4.31829 71.6738 4.66449 71.84 5.10764C72.0062 5.55079 72.0893 6.13242 72.0893 6.85253V23.2628H81.6031C81.7969 23.5674 81.977 23.9829 82.1431 24.5091C82.3093 25.0077 82.3924 25.5339 82.3924 26.0878C82.3924 27.1957 82.157 27.9851 81.6861 28.4559C81.2153 28.899 80.5921 29.1206 79.8166 29.1206H68.6826Z" fill="white"/>
<path d="M90.966 28.8298C90.6614 28.9129 90.1767 28.996 89.512 29.0791C88.875 29.1622 88.2379 29.2037 87.6009 29.2037C86.9639 29.2037 86.3961 29.1483 85.8976 29.0375C85.4267 28.9544 85.0251 28.7883 84.6928 28.539C84.3604 28.2897 84.1111 27.9435 83.945 27.5004C83.7788 27.0572 83.6957 26.4756 83.6957 25.7555V3.81975C84.0003 3.76435 84.485 3.69511 85.1498 3.61202C85.8145 3.50124 86.4515 3.44584 87.0608 3.44584C87.6978 3.44584 88.2518 3.50124 88.7226 3.61202C89.2212 3.69511 89.6366 3.86129 89.969 4.11056C90.3013 4.35983 90.5506 4.70604 90.7168 5.14919C90.883 5.59233 90.966 6.17396 90.966 6.89407V28.8298Z" fill="white"/>
<path d="M101.243 19.6484V28.8298C100.938 28.9129 100.453 28.996 99.7886 29.0791C99.1239 29.1622 98.473 29.2037 97.836 29.2037C97.199 29.2037 96.6312 29.1483 96.1327 29.0375C95.6618 28.9544 95.2602 28.7883 94.9279 28.539C94.5955 28.2897 94.3462 27.9435 94.1801 27.5004C94.0139 27.0572 93.9308 26.4756 93.9308 25.7555V3.81975C94.2355 3.76435 94.7201 3.69511 95.3849 3.61202C96.0496 3.50124 96.6866 3.44584 97.2959 3.44584C97.933 3.44584 98.4869 3.50124 98.9577 3.61202C99.4563 3.69511 99.8717 3.86129 100.204 4.11056C100.536 4.35983 100.786 4.70604 100.952 5.14919C101.118 5.59233 101.201 6.17396 101.201 6.89407V13.4997L109.843 3.57048C111.726 3.57048 113.069 3.93053 113.872 4.65065C114.703 5.34306 115.119 6.17396 115.119 7.14334C115.119 7.86346 114.939 8.54202 114.579 9.17905C114.219 9.81607 113.637 10.5362 112.834 11.3394L107.641 16.5325C108.333 17.308 109.053 18.1112 109.801 18.9421C110.576 19.773 111.324 20.5901 112.044 21.3933C112.792 22.1688 113.498 22.9166 114.163 23.6367C114.856 24.3568 115.451 24.98 115.95 25.5062C115.95 26.1155 115.839 26.6556 115.617 27.1265C115.396 27.5973 115.091 27.9989 114.703 28.3313C114.343 28.6636 113.928 28.9129 113.457 29.0791C112.986 29.2453 112.488 29.3283 111.961 29.3283C110.826 29.3283 109.898 29.0514 109.178 28.4974C108.458 27.9158 107.765 27.2373 107.101 26.4617L101.243 19.6484Z" fill="white"/>
<path d="M124.338 28.8298C124.033 28.9129 123.549 28.996 122.884 29.0791C122.247 29.1622 121.61 29.2037 120.973 29.2037C120.336 29.2037 119.768 29.1483 119.269 29.0375C118.799 28.9544 118.397 28.7883 118.065 28.539C117.732 28.2897 117.483 27.9435 117.317 27.5004C117.151 27.0572 117.068 26.4756 117.068 25.7555V3.81975C117.372 3.76435 117.857 3.69511 118.522 3.61202C119.186 3.50124 119.823 3.44584 120.433 3.44584C121.07 3.44584 121.624 3.50124 122.094 3.61202C122.593 3.69511 123.008 3.86129 123.341 4.11056C123.673 4.35983 123.922 4.70604 124.089 5.14919C124.255 5.59233 124.338 6.17396 124.338 6.89407V28.8298Z" fill="white"/>
<path d="M127.303 7.68343C127.303 6.49247 127.649 5.55079 128.341 4.85837C129.034 4.16596 129.975 3.81975 131.166 3.81975H144.876C145.07 4.12441 145.236 4.52601 145.375 5.02455C145.541 5.52309 145.624 6.04933 145.624 6.60326C145.624 7.65573 145.389 8.40354 144.918 8.84669C144.475 9.28983 143.879 9.51141 143.131 9.51141H134.365V13.3751H143.713C143.907 13.6797 144.073 14.0813 144.211 14.5799C144.378 15.0507 144.461 15.5631 144.461 16.1171C144.461 17.1695 144.239 17.9173 143.796 18.3605C143.353 18.8036 142.757 19.0252 142.01 19.0252H134.365V23.3874H145.042C145.236 23.6921 145.402 24.0937 145.541 24.5922C145.707 25.0908 145.79 25.617 145.79 26.1709C145.79 27.2234 145.555 27.9851 145.084 28.4559C144.641 28.899 144.045 29.1206 143.297 29.1206H131.166C129.975 29.1206 129.034 28.7744 128.341 28.082C127.649 27.3896 127.303 26.4479 127.303 25.2569V7.68343Z" fill="white"/>
<rect x="0.148926" width="32.6809" height="32.6809" rx="7.00304" fill="white"/>
<g filter="url(#filter0_i_1_1271)">
<path fill-rule="evenodd" clip-rule="evenodd" d="M27.2232 16.0254C27.2232 21.9701 22.4041 26.7892 16.4595 26.7892C15.1304 26.7892 13.8575 26.5483 12.6822 26.1077C11.8766 26.6116 9.62386 27.5564 6.99841 27.3376C6.58706 27.2234 6.01114 26.7892 6.99841 25.9664C7.51526 25.4271 8.50056 24.0658 8.37684 23.134C6.70799 21.238 5.6958 18.7499 5.6958 16.0254C5.6958 10.0808 10.5149 5.26172 16.4595 5.26172C22.4041 5.26172 27.2232 10.0808 27.2232 16.0254ZM20.5792 18.0759C19.896 17.4368 19.0641 16.8914 18.0835 16.4396C19.1413 16.065 19.9952 15.5306 20.6453 14.8364C21.3064 14.1312 21.637 13.3929 21.637 12.6216C21.637 12.0486 21.4662 11.5693 21.1246 11.1837C20.7941 10.787 20.3699 10.5886 19.852 10.5886C19.1137 10.5886 18.3755 10.9908 17.6372 11.7952C16.8989 12.5996 16.2488 13.5086 15.6869 14.5223V14.0265C15.6869 12.8475 15.5491 11.9715 15.2737 11.3985C15.0092 10.8256 14.5409 10.5391 13.8688 10.5391C13.2848 10.5391 12.833 10.7925 12.5135 11.2994C12.1939 11.7952 12.0231 12.4563 12.0011 13.2827C11.9791 13.5141 11.957 14.1091 11.935 15.0678C11.924 16.0154 11.9185 16.8363 11.9185 17.5305C11.9185 18.5111 11.946 19.3045 12.0011 19.9105C12.0672 20.5166 12.2325 21.0344 12.4969 21.4642C12.7724 21.8939 13.1966 22.1088 13.7696 22.1088C14.3205 22.1088 14.7338 21.938 15.0092 21.5964C15.2847 21.2438 15.461 20.803 15.5381 20.2741C15.6263 19.7452 15.6703 19.0896 15.6703 18.3073C16.2874 19.4422 16.9265 20.3623 17.5876 21.0675C18.2598 21.7617 18.976 22.1088 19.7363 22.1088C20.2652 22.1088 20.7114 21.949 21.0751 21.6295C21.4387 21.3099 21.6205 20.8196 21.6205 20.1584C21.6205 19.4092 21.2734 18.715 20.5792 18.0759Z" fill="#1E1D1B"/>
</g>
<defs>
<filter id="filter0_i_1_1271" x="5.42755" y="4.65815" width="21.7957" height="22.7118" filterUnits="userSpaceOnUse" color-interpolation-filters="sRGB">
<feFlood flood-opacity="0" result="BackgroundImageFix"/>
<feBlend mode="normal" in="SourceGraphic" in2="BackgroundImageFix" result="shape"/>
<feColorMatrix in="SourceAlpha" type="matrix" values="0 0 0 0 0 0 0 0 0 0 0 0 0 0 0 0 0 0 127 0" result="hardAlpha"/>
<feOffset dx="-0.268254" dy="-0.603572"/>
<feGaussianBlur stdDeviation="0.392322"/>
<feComposite in2="hardAlpha" operator="arithmetic" k2="-1" k3="1"/>
<feColorMatrix type="matrix" values="0 0 0 0 0.437158 0 0 0 0 0.436955 0 0 0 0 0.436141 0 0 0 1 0"/>
<feBlend mode="normal" in2="shape" result="effect1_innerShadow_1_1271"/>
</filter>
</defs>
</svg>
