<svg width="216" height="64" viewBox="0 0 216 64" fill="none" xmlns="http://www.w3.org/2000/svg">
<g clip-path="url(#clip0_1_95)">
<path fill-rule="evenodd" clip-rule="evenodd" d="M207.997 64H8.00294C3.59218 64 0 60.393 0 56V8C0 3.59102 3.59218 0 8.00294 0H207.997C212.404 0 216 3.59102 216 8V56C216 60.393 212.404 64 207.997 64Z" fill="white"/>
<path d="M113.789 21.1704C112.347 21.1704 111.131 20.6636 110.169 19.6661C109.215 18.6965 108.683 17.3599 108.707 15.9953C108.707 14.5389 109.199 13.306 110.169 12.3285C111.127 11.331 112.343 10.8242 113.785 10.8242C115.212 10.8242 116.427 11.331 117.405 12.3285C118.375 13.3379 118.867 14.5709 118.867 15.9953C118.851 17.4556 118.359 18.6886 117.405 19.6621C116.447 20.6676 115.231 21.1704 113.789 21.1704ZM70.8698 21.1704C69.4591 21.1704 68.2353 20.6716 67.2339 19.6861C66.2405 18.7045 65.7358 17.4636 65.7358 15.9993C65.7358 14.5349 66.2405 13.294 67.2339 12.3125C68.2154 11.327 69.4393 10.8282 70.8698 10.8282C71.5691 10.8282 72.2486 10.9679 72.9003 11.2512C73.5401 11.5265 74.0606 11.9015 74.446 12.3604L74.5414 12.4761L73.4646 13.5374L73.3533 13.4058C72.7453 12.6796 71.9307 12.3245 70.8539 12.3245C69.8923 12.3245 69.0538 12.6676 68.3624 13.3459C67.667 14.0282 67.3134 14.922 67.3134 16.0033C67.3134 17.0846 67.667 17.9783 68.3624 18.6606C69.0538 19.3389 69.8923 19.6821 70.8539 19.6821C71.8791 19.6821 72.7414 19.3389 73.4129 18.6606C73.8103 18.2616 74.0566 17.703 74.144 16.9968H70.691V15.5045H75.6262L75.6461 15.6402C75.6818 15.8916 75.7176 16.1509 75.7176 16.3903C75.7176 17.7669 75.3043 18.8801 74.4858 19.702C73.5559 20.6756 72.34 21.1704 70.8698 21.1704ZM127.935 20.9589H126.413L121.752 13.4696L121.792 14.8182V20.9549H120.27V11.0397H122.006L122.054 11.1155L126.437 18.1699L126.397 16.8252V11.0397H127.935V20.9589ZM102.353 20.9589H100.811V12.532H98.1368V11.0397H105.023V12.532H102.349V20.9589H102.353ZM96.8812 20.9589H95.3434V11.0397H96.8812V20.9589ZM88.2385 20.9589H86.7007V12.532H84.0265V11.0397H90.9128V12.532H88.2385V20.9589ZM83.0529 20.9429H77.1561V11.0397H83.0529V12.532H78.6978V15.2531H82.6277V16.7295H78.6978V19.4507H83.0529V20.9429ZM111.297 18.6407C111.985 19.331 112.819 19.6781 113.789 19.6781C114.786 19.6781 115.601 19.3389 116.28 18.6407C116.956 17.9624 117.298 17.0726 117.298 15.9993C117.298 14.926 116.956 14.0322 116.284 13.3579C115.597 12.6676 114.759 12.3205 113.793 12.3205C112.796 12.3205 111.981 12.6596 111.305 13.3579C110.63 14.0362 110.288 14.926 110.288 15.9993C110.288 17.0726 110.626 17.9664 111.297 18.6407Z" fill="black"/>
<path fill-rule="evenodd" clip-rule="evenodd" d="M108.565 34.811C104.81 34.811 101.766 37.6719 101.766 41.618C101.766 45.5282 104.829 48.425 108.565 48.425C112.32 48.425 115.364 45.5442 115.364 41.618C115.364 37.6719 112.32 34.811 108.565 34.811ZM108.565 45.7277C106.51 45.7277 104.742 44.02 104.742 41.602C104.742 39.1482 106.514 37.4763 108.565 37.4763C110.619 37.4763 112.387 39.1482 112.387 41.602C112.391 44.0359 110.619 45.7277 108.565 45.7277ZM93.731 34.811C89.9759 34.811 86.9321 37.6719 86.9321 41.618C86.9321 45.5282 89.9958 48.425 93.731 48.425C97.4861 48.425 100.53 45.5442 100.53 41.618C100.53 37.6719 97.4822 34.811 93.731 34.811ZM93.731 45.7277C91.6766 45.7277 89.9084 44.02 89.9084 41.602C89.9084 39.1482 91.6806 37.4763 93.731 37.4763C95.7854 37.4763 97.5537 39.1482 97.5537 41.602C97.5537 44.0359 95.7854 45.7277 93.731 45.7277ZM76.08 36.8898V39.7706H82.9664C82.7558 41.3866 82.2233 42.5796 81.4087 43.3975C80.3994 44.411 78.8417 45.5123 76.0959 45.5123C71.864 45.5123 68.5539 42.0808 68.5539 37.8315C68.5539 33.5821 71.864 30.1507 76.0959 30.1507C78.3808 30.1507 80.0457 31.0564 81.2815 32.2135L83.316 30.1706C81.5994 28.5187 79.3146 27.2539 76.1118 27.2539C70.3063 27.2539 65.4346 32.002 65.4346 37.8155C65.4346 43.6449 70.3023 48.3771 76.1118 48.3771C79.247 48.3771 81.5994 47.3477 83.4591 45.4085C85.3545 43.5053 85.9546 40.82 85.9546 38.6534C85.9546 37.9791 85.9029 37.3726 85.7956 36.8579H76.076C76.08 36.8539 76.08 36.8898 76.08 36.8898ZM148.277 39.1322C147.709 37.604 145.993 34.7951 142.472 34.7951C138.983 34.7951 136.082 37.5522 136.082 41.602C136.082 45.4245 138.951 48.409 142.81 48.409C145.909 48.409 147.713 46.5058 148.456 45.3886L146.156 43.8404C145.393 44.9776 144.332 45.7237 142.826 45.7237C141.304 45.7237 140.239 45.0295 139.531 43.6609L148.595 39.8903C148.595 39.8943 148.277 39.1322 148.277 39.1322ZM139.035 41.4065C138.963 38.7771 141.069 37.4404 142.575 37.4404C143.763 37.4404 144.753 38.027 145.091 38.8808L139.035 41.4065ZM131.672 48.002H134.648V28.004H131.672V48.002ZM126.784 36.3232H126.677C126.005 35.5212 124.73 34.7951 123.1 34.7951C119.719 34.7951 116.603 37.7836 116.603 41.622C116.603 45.4444 119.703 48.397 123.1 48.397C124.71 48.397 126.005 47.6669 126.677 46.8489H126.784V47.8265C126.784 50.424 125.401 51.8245 123.172 51.8245C121.348 51.8245 120.215 50.5078 119.755 49.4065L117.168 50.4918C117.911 52.2873 119.894 54.5098 123.168 54.5098C126.657 54.5098 129.613 52.4469 129.613 47.4155V35.202H126.8V36.3232C126.804 36.3232 126.784 36.3232 126.784 36.3232ZM123.367 45.7277C121.312 45.7277 119.596 44.004 119.596 41.622C119.596 39.22 121.312 37.4803 123.367 37.4803C125.401 37.4803 126.979 39.2399 126.979 41.622C126.999 44.004 125.405 45.7277 123.367 45.7277ZM162.213 28.004H155.096V48.002H158.073V40.429H162.217C165.511 40.429 168.75 38.031 168.75 34.2245C168.75 30.418 165.523 28.004 162.213 28.004ZM162.301 37.636H158.069V30.7731H162.301C164.53 30.7731 165.789 32.6205 165.789 34.2045C165.789 35.7726 164.514 37.636 162.301 37.636ZM180.679 34.7751C178.517 34.7751 176.288 35.7367 175.366 37.8315L178.004 38.9327C178.573 37.8315 179.614 37.4564 180.714 37.4564C182.256 37.4564 183.814 38.3821 183.85 40.034V40.2454C183.317 39.9422 182.149 39.4793 180.75 39.4793C177.901 39.4793 175.012 41.0434 175.012 43.9761C175.012 46.6614 177.349 48.3851 179.952 48.3851C181.95 48.3851 183.051 47.4793 183.738 46.43H183.846V47.9781H186.715V40.3172C186.715 36.7502 184.076 34.7751 180.679 34.7751ZM180.305 45.7277C179.332 45.7277 177.969 45.2489 177.969 44.02C177.969 42.4719 179.669 41.8853 181.12 41.8853C182.431 41.8853 183.051 42.1686 183.83 42.5596C183.615 44.3552 182.105 45.7118 180.305 45.7277ZM197.181 35.202L193.764 43.8763H193.657L190.116 35.202H186.913L192.226 47.3277L189.198 54.0669H192.298L200.472 35.202H197.181ZM170.391 48.002H173.367V28.004H170.391V48.002Z" fill="black"/>
<path opacity="0.2" fill-rule="evenodd" clip-rule="evenodd" d="M43.0745 38.6133L19.9517 51.8043C18.6602 52.5504 17.5079 52.4985 16.7648 51.8202L16.6416 51.9439L16.7648 52.0516C17.5079 52.7259 18.6602 52.7818 19.9517 52.0357L43.2335 38.7569L43.0745 38.6133Z" fill="white"/>
<path opacity="0.12" fill-rule="evenodd" clip-rule="evenodd" d="M51.006 34.0788L43.0547 38.6115L43.1977 38.7551L50.9861 34.3102C52.1027 33.6718 52.6511 32.8339 52.6511 32C52.5835 32.7661 52.0153 33.4923 51.006 34.0788Z" fill="white"/>
<path opacity="0.25" fill-rule="evenodd" clip-rule="evenodd" d="M19.9357 12.1996L51.0057 29.9233C52.015 30.4939 52.5832 31.24 52.6707 32.0021C52.6707 31.1682 52.1223 30.3303 51.0057 29.6919L19.9357 11.9682C17.7065 10.6874 15.8984 11.7567 15.8984 14.3143V14.5457C15.8984 11.9842 17.7065 10.9348 19.9357 12.1996Z" fill="black"/>
<path d="M18.5926 14.524C18.199 14.9258 17.9712 15.5512 17.9712 16.3612V45.2526C17.9712 46.0626 18.199 46.6881 18.5926 47.0898L18.6897 47.178L35.2946 30.9947V30.6126L18.6897 14.4293L18.5926 14.524Z" fill="black"/>
<path d="M42.833 36.3906L37.3042 30.9935V30.6114L42.8397 25.2142L42.9637 25.2844L49.5192 28.9212C51.3901 29.9532 51.3901 31.6516 49.5192 32.6902L42.9637 36.3204L42.833 36.3906Z" fill="black"/>
<path d="M41.9589 37.3274L36.2995 31.8094L19.5974 48.0955C20.2188 48.7324 21.2321 48.8091 22.3844 48.1723L41.9589 37.3274Z" fill="black"/>
<path d="M41.9592 24.2828L22.3847 13.4379C21.2324 12.8076 20.219 12.8843 19.5977 13.5212L36.2997 29.8008L41.9592 24.2828Z" fill="black"/>
</g>
<defs>
<clipPath id="clip0_1_95">
<rect width="216" height="64" fill="white"/>
</clipPath>
</defs>
</svg>
