<svg width="239" height="78" viewBox="0 0 239 78" fill="none" xmlns="http://www.w3.org/2000/svg">
<path d="M229.955 78H9.58435C4.7384 78 0.769531 73.6101 0.769531 68.25V9.75C0.769531 4.38994 4.7384 -1.90735e-06 9.58435 -1.90735e-06H229.955C234.801 -1.90735e-06 238.77 4.38994 238.77 9.75V68.25C238.77 73.6101 234.801 78 229.955 78Z" fill="#131312"/>
<path d="M24.8931 19.0627C24.4111 19.5547 24.1321 20.3207 24.1321 21.3127V56.6967C24.1321 57.6887 24.4111 58.4547 24.8931 58.9467L25.0121 59.0547L45.3485 39.2347V38.7667L25.0121 18.9467L24.8931 19.0627Z" fill="#FFFBE9"/>
<path d="M54.5813 45.8438L47.8101 39.2338V38.7657L54.5895 32.1557L54.7413 32.2418L62.7701 36.6957C65.0613 37.9597 65.0613 40.0397 62.7701 41.3117L54.7413 45.7577L54.5813 45.8438Z" fill="#FFFBE9"/>
<path d="M53.5105 46.9904L46.5792 40.2324L26.1238 60.1784C26.8849 60.9584 28.1259 61.0524 29.5372 60.2724L53.5105 46.9904Z" fill="#FFFBE9"/>
<path d="M53.5104 31.0154L29.5371 17.7334C28.1258 16.9614 26.8848 17.0554 26.1238 17.8354L46.5792 37.7734L53.5104 31.0154Z" fill="#FFFBE9"/>
<path d="M86.8134 23.3904C86.8134 24.7264 86.4032 25.7964 85.595 26.5944C84.6657 27.5404 83.4555 28.0164 81.9724 28.0164C80.555 28.0164 79.3447 27.5324 78.3519 26.5784C77.357 25.6104 76.8606 24.4224 76.8606 23.0004C76.8606 21.5784 77.357 20.3904 78.3519 19.4304C79.3447 18.4684 80.555 17.9844 81.9724 17.9844C82.678 17.9844 83.3508 18.1264 83.9929 18.3904C84.6329 18.6564 85.1539 19.0164 85.5314 19.4604L84.6739 20.3044C84.0155 19.5464 83.1191 19.1724 81.9724 19.1724C80.9385 19.1724 80.0421 19.5244 79.2811 20.2344C78.5283 20.9464 78.1508 21.8684 78.1508 23.0004C78.1508 24.1324 78.5283 25.0624 79.2811 25.7744C80.0421 26.4764 80.9385 26.8364 81.9724 26.8364C83.0698 26.8364 83.9929 26.4764 84.7211 25.7664C85.2011 25.2964 85.4739 24.6484 85.5457 23.8204H81.9724V22.6644H86.7396C86.797 22.9144 86.8134 23.1564 86.8134 23.3904Z" fill="#FFFBE9" stroke="#FFFBE9" stroke-width="0.065641" stroke-miterlimit="10"/>
<path d="M94.3765 19.3811H89.8986V22.4211H93.9355V23.5771H89.8986V26.6171H94.3765V27.7951H88.6309V18.2031H94.3765V19.3811Z" fill="#FFFBE9" stroke="#FFFBE9" stroke-width="0.065641" stroke-miterlimit="10"/>
<path d="M99.7138 27.7951H98.4461V19.3811H95.6995V18.2031H102.463V19.3811H99.7138V27.7951Z" fill="#FFFBE9" stroke="#FFFBE9" stroke-width="0.065641" stroke-miterlimit="10"/>
<path d="M107.357 27.7951V18.2031H108.623V27.7951H107.357Z" fill="#FFFBE9" stroke="#FFFBE9" stroke-width="0.065641" stroke-miterlimit="10"/>
<path d="M114.233 27.7951H112.975V19.3811H110.219V18.2031H116.99V19.3811H114.233V27.7951Z" fill="#FFFBE9" stroke="#FFFBE9" stroke-width="0.065641" stroke-miterlimit="10"/>
<path d="M129.794 26.5624C128.824 27.5324 127.622 28.0164 126.188 28.0164C124.746 28.0164 123.544 27.5324 122.574 26.5624C121.605 25.5944 121.123 24.4064 121.123 23.0004C121.123 21.5944 121.605 20.4064 122.574 19.4384C123.544 18.4684 124.746 17.9844 126.188 17.9844C127.614 17.9844 128.816 18.4684 129.786 19.4464C130.762 20.4224 131.244 21.6024 131.244 23.0004C131.244 24.4064 130.762 25.5944 129.794 26.5624ZM123.511 25.7584C124.241 26.4764 125.129 26.8364 126.188 26.8364C127.238 26.8364 128.135 26.4764 128.857 25.7584C129.585 25.0404 129.954 24.1184 129.954 23.0004C129.954 21.8824 129.585 20.9604 128.857 20.2424C128.135 19.5244 127.238 19.1644 126.188 19.1644C125.129 19.1644 124.241 19.5244 123.511 20.2424C122.783 20.9604 122.414 21.8824 122.414 23.0004C122.414 24.1184 122.783 25.0404 123.511 25.7584Z" fill="#FFFBE9" stroke="#FFFBE9" stroke-width="0.065641" stroke-miterlimit="10"/>
<path d="M133.023 27.7951V18.2031H134.561L139.345 25.6631H139.4L139.345 23.8191V18.2031H140.61V27.7951H139.289L134.28 19.9671H134.225L134.28 21.8191V27.7951H133.023Z" fill="#FFFBE9" stroke="#FFFBE9" stroke-width="0.065641" stroke-miterlimit="10"/>
<path d="M120.811 41.8034C116.957 41.8034 113.808 44.6634 113.808 48.6094C113.808 52.5234 116.957 55.4134 120.811 55.4134C124.674 55.4134 127.823 52.5234 127.823 48.6094C127.823 44.6634 124.674 41.8034 120.811 41.8034ZM120.811 52.7334C118.696 52.7334 116.877 51.0314 116.877 48.6094C116.877 46.1554 118.696 44.4834 120.811 44.4834C122.926 44.4834 124.754 46.1554 124.754 48.6094C124.754 51.0314 122.926 52.7334 120.811 52.7334ZM105.531 41.8034C101.669 41.8034 98.5282 44.6634 98.5282 48.6094C98.5282 52.5234 101.669 55.4134 105.531 55.4134C109.392 55.4134 112.534 52.5234 112.534 48.6094C112.534 44.6634 109.392 41.8034 105.531 41.8034ZM105.531 52.7334C103.414 52.7334 101.589 51.0314 101.589 48.6094C101.589 46.1554 103.414 44.4834 105.531 44.4834C107.646 44.4834 109.466 46.1554 109.466 48.6094C109.466 51.0314 107.646 52.7334 105.531 52.7334ZM87.3487 43.8894V46.7814H94.4317C94.2246 48.3974 93.6707 49.5854 92.8215 50.4134C91.7876 51.4134 90.1774 52.5234 87.3487 52.5234C82.9897 52.5234 79.5764 49.0934 79.5764 44.8434C79.5764 40.5934 82.9897 37.1634 87.3487 37.1634C89.7056 37.1634 91.4205 38.0614 92.6861 39.2254L94.7764 37.1874C93.0061 35.5394 90.6512 34.2734 87.3487 34.2734C81.3712 34.2734 76.3477 39.0154 76.3477 44.8434C76.3477 50.6714 81.3712 55.4134 87.3487 55.4134C90.5794 55.4134 93.0061 54.3814 94.9138 52.4454C96.8687 50.5394 97.4779 47.8594 97.4779 45.6954C97.4779 45.0234 97.4205 44.4054 97.3179 43.8894H87.3487ZM161.699 46.1314C161.123 44.6094 159.345 41.8034 155.722 41.8034C152.132 41.8034 149.144 44.5614 149.144 48.6094C149.144 52.4214 152.101 55.4134 156.067 55.4134C159.273 55.4134 161.123 53.5074 161.884 52.3974L159.505 50.8514C158.711 51.9834 157.63 52.7334 156.067 52.7334C154.514 52.7334 153.4 52.0394 152.686 50.6714L162.021 46.9054L161.699 46.1314ZM152.181 48.3974C152.101 45.7734 154.272 44.4294 155.827 44.4294C157.045 44.4294 158.079 45.0234 158.424 45.8734L152.181 48.3974ZM144.594 54.9994H147.663V34.9994H144.594V54.9994ZM139.568 43.3194H139.466C138.776 42.5234 137.461 41.8034 135.796 41.8034C132.3 41.8034 129.105 44.7954 129.105 48.6314C129.105 52.4454 132.3 55.4134 135.796 55.4134C137.461 55.4134 138.776 54.6874 139.466 53.8674H139.568V54.8434C139.568 57.4454 138.142 58.8434 135.843 58.8434C133.968 58.8434 132.805 57.5234 132.325 56.4134L129.656 57.4994C130.426 59.3034 132.463 61.5234 135.843 61.5234C139.441 61.5234 142.477 59.4594 142.477 54.4374V42.2174H139.568V43.3194ZM136.058 52.7334C133.944 52.7334 132.173 51.0074 132.173 48.6314C132.173 46.2334 133.944 44.4834 136.058 44.4834C138.143 44.4834 139.786 46.2334 139.786 48.6314C139.786 51.0074 138.143 52.7334 136.058 52.7334ZM176.067 34.9994H168.727V54.9994H171.788V47.4214H176.067C179.466 47.4214 182.799 45.0234 182.799 41.2094C182.799 37.3974 179.457 34.9994 176.067 34.9994ZM176.147 44.6394H171.788V37.7814H176.147C178.432 37.7814 179.736 39.6314 179.736 41.2094C179.736 42.7574 178.432 44.6394 176.147 44.6394ZM195.066 41.7654C192.854 41.7654 190.555 42.7174 189.609 44.8274L192.325 45.9374C192.91 44.8274 193.985 44.4674 195.121 44.4674C196.709 44.4674 198.319 45.3974 198.344 47.0394V47.2494C197.79 46.9374 196.604 46.4754 195.146 46.4754C192.22 46.4754 189.24 48.0454 189.24 50.9754C189.24 53.6554 191.636 55.3814 194.329 55.3814C196.389 55.3814 197.525 54.4754 198.239 53.4214H198.344V54.9674H201.299V47.2954C201.299 43.7494 198.584 41.7654 195.066 41.7654ZM194.696 52.7254C193.695 52.7254 192.3 52.2414 192.3 51.0314C192.3 49.4834 194.04 48.8894 195.546 48.8894C196.893 48.8894 197.525 49.1794 198.344 49.5614C198.104 51.4134 196.469 52.7254 194.696 52.7254ZM212.069 42.2034L208.551 50.8734H208.446L204.809 42.2034H201.509L206.973 54.3194L203.855 61.0614H207.053L215.474 42.2034H212.069ZM184.481 54.9994H187.55V34.9994H184.481V54.9994Z" fill="#FFFBE9"/>
</svg>
